<svg xmlns="http://www.w3.org/2000/svg" viewBox="0 0 1200 500" width="1200" height="500">
  <defs>
    <linearGradient id="bodyGrad" x1="0" y1="0" x2="0" y2="1">
      <stop offset="0%" stop-color="#cc0000"/>
      <stop offset="100%" stop-color="#990000"/>
    </linearGradient>
    <linearGradient id="shutterGrad" x1="0" y1="0" x2="0" y2="1">
      <stop offset="0%" stop-color="#888"/>
      <stop offset="100%" stop-color="#666"/>
    </linearGradient>
    <linearGradient id="cabGrad" x1="0" y1="0" x2="0" y2="1">
      <stop offset="0%" stop-color="#dd1111"/>
      <stop offset="100%" stop-color="#aa0000"/>
    </linearGradient>
    <linearGradient id="tireGrad" x1="0" y1="0" x2="1" y2="1">
      <stop offset="0%" stop-color="#333"/>
      <stop offset="100%" stop-color="#111"/>
    </linearGradient>
  </defs>

  <rect width="1200" height="500" fill="#f0f0f0"/>
  <ellipse cx="620" cy="460" rx="500" ry="20" fill="rgba(0,0,0,0.15)"/>

  <!-- Chassis -->
  <rect x="120" y="370" width="1000" height="30" rx="3" fill="#444"/>

  <!-- Aufbau (Geräteraum) - gespiegelt: Kabine rechts -->
  <rect x="120" y="130" width="740" height="250" rx="4" fill="url(#bodyGrad)" stroke="#800" stroke-width="2"/>

  <!-- Reflektierende Streifen -->
  <rect x="120" y="320" width="740" height="12" fill="#ffcc00" opacity="0.9"/>
  <rect x="120" y="335" width="740" height="8" fill="#fff" opacity="0.6"/>

  <!-- Rollladen G5 -->
  <rect x="145" y="155" width="175" height="155" rx="3" fill="url(#shutterGrad)" stroke="#555" stroke-width="1.5"/>
  <line x1="145" y1="170" x2="320" y2="170" stroke="#777" stroke-width="0.5"/>
  <line x1="145" y1="185" x2="320" y2="185" stroke="#777" stroke-width="0.5"/>
  <line x1="145" y1="200" x2="320" y2="200" stroke="#777" stroke-width="0.5"/>
  <line x1="145" y1="215" x2="320" y2="215" stroke="#777" stroke-width="0.5"/>
  <line x1="145" y1="230" x2="320" y2="230" stroke="#777" stroke-width="0.5"/>
  <line x1="145" y1="245" x2="320" y2="245" stroke="#777" stroke-width="0.5"/>
  <line x1="145" y1="260" x2="320" y2="260" stroke="#777" stroke-width="0.5"/>
  <line x1="145" y1="275" x2="320" y2="275" stroke="#777" stroke-width="0.5"/>
  <line x1="145" y1="290" x2="320" y2="290" stroke="#777" stroke-width="0.5"/>
  <line x1="145" y1="305" x2="320" y2="305" stroke="#777" stroke-width="0.5"/>
  <text x="232" y="150" text-anchor="middle" fill="#fff" font-size="11" font-family="Arial" font-weight="bold">G5</text>

  <!-- Rollladen G6 -->
  <rect x="335" y="155" width="160" height="155" rx="3" fill="url(#shutterGrad)" stroke="#555" stroke-width="1.5"/>
  <line x1="335" y1="170" x2="495" y2="170" stroke="#777" stroke-width="0.5"/>
  <line x1="335" y1="185" x2="495" y2="185" stroke="#777" stroke-width="0.5"/>
  <line x1="335" y1="200" x2="495" y2="200" stroke="#777" stroke-width="0.5"/>
  <line x1="335" y1="215" x2="495" y2="215" stroke="#777" stroke-width="0.5"/>
  <line x1="335" y1="230" x2="495" y2="230" stroke="#777" stroke-width="0.5"/>
  <line x1="335" y1="245" x2="495" y2="245" stroke="#777" stroke-width="0.5"/>
  <line x1="335" y1="260" x2="495" y2="260" stroke="#777" stroke-width="0.5"/>
  <line x1="335" y1="275" x2="495" y2="275" stroke="#777" stroke-width="0.5"/>
  <line x1="335" y1="290" x2="495" y2="290" stroke="#777" stroke-width="0.5"/>
  <line x1="335" y1="305" x2="495" y2="305" stroke="#777" stroke-width="0.5"/>
  <text x="415" y="150" text-anchor="middle" fill="#fff" font-size="11" font-family="Arial" font-weight="bold">G6</text>

  <!-- Rollladen G7 -->
  <rect x="510" y="155" width="160" height="155" rx="3" fill="url(#shutterGrad)" stroke="#555" stroke-width="1.5"/>
  <line x1="510" y1="170" x2="670" y2="170" stroke="#777" stroke-width="0.5"/>
  <line x1="510" y1="185" x2="670" y2="185" stroke="#777" stroke-width="0.5"/>
  <line x1="510" y1="200" x2="670" y2="200" stroke="#777" stroke-width="0.5"/>
  <line x1="510" y1="215" x2="670" y2="215" stroke="#777" stroke-width="0.5"/>
  <line x1="510" y1="230" x2="670" y2="230" stroke="#777" stroke-width="0.5"/>
  <line x1="510" y1="245" x2="670" y2="245" stroke="#777" stroke-width="0.5"/>
  <line x1="510" y1="260" x2="670" y2="260" stroke="#777" stroke-width="0.5"/>
  <line x1="510" y1="275" x2="670" y2="275" stroke="#777" stroke-width="0.5"/>
  <line x1="510" y1="290" x2="670" y2="290" stroke="#777" stroke-width="0.5"/>
  <line x1="510" y1="305" x2="670" y2="305" stroke="#777" stroke-width="0.5"/>
  <text x="590" y="150" text-anchor="middle" fill="#fff" font-size="11" font-family="Arial" font-weight="bold">G7</text>

  <!-- Rollladen GR (Geräteraum Heck-nah) -->
  <rect x="685" y="155" width="150" height="155" rx="3" fill="url(#shutterGrad)" stroke="#555" stroke-width="1.5"/>
  <line x1="685" y1="170" x2="835" y2="170" stroke="#777" stroke-width="0.5"/>
  <line x1="685" y1="185" x2="835" y2="185" stroke="#777" stroke-width="0.5"/>
  <line x1="685" y1="200" x2="835" y2="200" stroke="#777" stroke-width="0.5"/>
  <line x1="685" y1="215" x2="835" y2="215" stroke="#777" stroke-width="0.5"/>
  <line x1="685" y1="230" x2="835" y2="230" stroke="#777" stroke-width="0.5"/>
  <line x1="685" y1="245" x2="835" y2="245" stroke="#777" stroke-width="0.5"/>
  <line x1="685" y1="260" x2="835" y2="260" stroke="#777" stroke-width="0.5"/>
  <line x1="685" y1="275" x2="835" y2="275" stroke="#777" stroke-width="0.5"/>
  <line x1="685" y1="290" x2="835" y2="290" stroke="#777" stroke-width="0.5"/>
  <line x1="685" y1="305" x2="835" y2="305" stroke="#777" stroke-width="0.5"/>
  <text x="760" y="150" text-anchor="middle" fill="#fff" font-size="11" font-family="Arial" font-weight="bold">G8</text>

  <!-- Kabine (rechts = vorne rechts im Bild) -->
  <rect x="865" y="160" width="255" height="220" rx="6" fill="url(#cabGrad)" stroke="#800" stroke-width="2"/>

  <!-- Windschutzscheibe -->
  <rect x="1010" y="175" width="100" height="120" rx="8" fill="#b8d4e8" stroke="#666" stroke-width="1.5" opacity="0.85"/>
  <rect x="1075" y="180" width="30" height="60" rx="4" fill="#fff" opacity="0.15"/>

  <!-- Seitenscheibe -->
  <rect x="880" y="175" width="120" height="100" rx="6" fill="#b8d4e8" stroke="#666" stroke-width="1.5" opacity="0.85"/>
  <rect x="970" y="180" width="25" height="45" rx="3" fill="#fff" opacity="0.15"/>

  <!-- Tuer-Griff -->
  <rect x="877" y="240" width="18" height="6" rx="3" fill="#555"/>

  <!-- Spiegel -->
  <rect x="1115" y="200" width="15" height="35" rx="3" fill="#444" stroke="#333" stroke-width="1"/>

  <!-- Lichtbalken -->
  <rect x="900" y="130" width="200" height="30" rx="8" fill="#333" stroke="#222" stroke-width="1"/>
  <rect x="910" y="133" width="20" height="24" rx="5" fill="#4488ff" opacity="0.9"/>
  <rect x="940" y="133" width="40" height="24" rx="5" fill="#4488ff" opacity="0.9"/>
  <rect x="990" y="133" width="40" height="24" rx="5" fill="#ff4444" opacity="0.9"/>
  <rect x="1040" y="133" width="40" height="24" rx="5" fill="#ff4444" opacity="0.9"/>

  <!-- Dachkasten Geräteraum -->
  <rect x="120" y="105" width="740" height="28" rx="3" fill="#aa0000" stroke="#800" stroke-width="1"/>

  <!-- Leiterhalterung -->
  <rect x="200" y="95" width="600" height="12" rx="2" fill="#888" stroke="#666" stroke-width="1"/>
  <rect x="220" y="88" width="8" height="20" rx="1" fill="#777"/>
  <rect x="400" y="88" width="8" height="20" rx="1" fill="#777"/>
  <rect x="580" y="88" width="8" height="20" rx="1" fill="#777"/>
  <rect x="760" y="88" width="8" height="20" rx="1" fill="#777"/>

  <!-- Reifen hinten (im Bild links) -->
  <circle cx="300" cy="410" r="48" fill="url(#tireGrad)"/>
  <circle cx="300" cy="410" r="38" fill="#222"/>
  <circle cx="300" cy="410" r="20" fill="#555"/>
  <circle cx="300" cy="410" r="8" fill="#444"/>
  <circle cx="300" cy="398" r="3" fill="#777"/>
  <circle cx="312" cy="410" r="3" fill="#777"/>
  <circle cx="300" cy="422" r="3" fill="#777"/>
  <circle cx="288" cy="410" r="3" fill="#777"/>

  <!-- Reifen vorne (im Bild rechts) -->
  <circle cx="990" cy="410" r="48" fill="url(#tireGrad)"/>
  <circle cx="990" cy="410" r="38" fill="#222"/>
  <circle cx="990" cy="410" r="20" fill="#555"/>
  <circle cx="990" cy="410" r="8" fill="#444"/>
  <circle cx="990" cy="398" r="3" fill="#777"/>
  <circle cx="1002" cy="410" r="3" fill="#777"/>
  <circle cx="990" cy="422" r="3" fill="#777"/>
  <circle cx="978" cy="410" r="3" fill="#777"/>

  <!-- Trittbretter -->
  <rect x="340" y="380" width="80" height="8" rx="2" fill="#555"/>
  <rect x="700" y="380" width="80" height="8" rx="2" fill="#555"/>

  <!-- Schriftzug -->
  <text x="490" y="395" text-anchor="middle" fill="#fff" font-size="22" font-family="Arial" font-weight="bold" letter-spacing="3">HLF 20</text>

  <!-- Feuerwehr -->
  <text x="1020" y="365" text-anchor="middle" fill="#fff" font-size="12" font-family="Arial" font-weight="bold">FEUERWEHR</text>

  <!-- 112 -->
  <text x="1020" y="310" text-anchor="middle" fill="#fff" font-size="18" font-family="Arial" font-weight="bold">112</text>

  <!-- Stossstange -->
  <rect x="1110" y="385" width="25" height="20" rx="3" fill="#444"/>
  <rect x="1116" y="340" width="14" height="8" rx="2" fill="#4488ff" opacity="0.8"/>

  <!-- Heckleuchten -->
  <rect x="118" y="300" width="12" height="25" rx="3" fill="#ff3333" opacity="0.8"/>
  <rect x="118" y="330" width="12" height="15" rx="3" fill="#ffaa00" opacity="0.8"/>
</svg>