<?xml version="1.0" encoding="UTF-8"?>
<svg xmlns="http://www.w3.org/2000/svg" viewBox="0 0 320 220" role="img" aria-label="die Akku-Bohrmaschine">
  <defs>
    <radialGradient id="paper" cx="50%" cy="50%" r="70%">
      <stop offset="0%" stop-color="#f7f1e1" />
      <stop offset="100%" stop-color="#e8dfc3" />
    </radialGradient>
    <filter id="sketch" x="-5%" y="-5%" width="110%" height="110%">
      <feTurbulence type="fractalNoise" baseFrequency="0.02" numOctaves="2" seed="172" />
      <feDisplacementMap in="SourceGraphic" scale="1.8" />
    </filter>
    <filter id="sketchLight" x="-5%" y="-5%" width="110%" height="110%">
      <feTurbulence type="fractalNoise" baseFrequency="0.04" numOctaves="1" seed="175" />
      <feDisplacementMap in="SourceGraphic" scale="1.1" />
    </filter>
  </defs>

  <!-- Papier-Hintergrund -->
  <rect width="320" height="220" fill="url(#paper)" />

  <!-- Doppel-Rahmen, leicht verzittert -->
  <g fill="none" stroke="#1a1a1a" stroke-linecap="round" stroke-linejoin="round" filter="url(#sketchLight)">
    <rect x="10" y="10" width="300" height="200" stroke-width="2.4" rx="4" />
    <rect x="15" y="15" width="290" height="190" stroke-width="1.2" rx="3" />
  </g>

  <!-- Pencil-Shading neben der Haupt-Silhouette -->
  <g stroke="#1a1a1a" stroke-width="1" opacity="0.18" filter="url(#sketchLight)">
    <line x1="38" y1="180" x2="78" y2="180" />
    <line x1="38" y1="186" x2="88" y2="186" />
    <line x1="38" y1="192" x2="70" y2="192" />
    <line x1="244" y1="46" x2="282" y2="46" />
    <line x1="244" y1="52" x2="276" y2="52" />
  </g>

  <!-- Haupt-Icon mit Sketch-Filter -->
  <g filter="url(#sketch)">
    
    <g stroke="#1a1a1a" stroke-width="3.5" stroke-linejoin="round" stroke-linecap="round">
      <!-- Korpus -->
      <path d="M 120 92 L 180 92 L 180 124 L 140 124 L 148 148 L 122 148 L 114 124 L 120 124 Z" fill="#b47a30" />
      <!-- Akkupack unten -->
      <rect x="116" y="148" width="38" height="16" rx="3" fill="#1a1a1a" />
      <!-- Bohrfutter -->
      <rect x="180" y="100" width="20" height="20" rx="2" fill="#1a1a1a" />
      <!-- Bohrer -->
      <line x1="200" y1="110" x2="236" y2="110" stroke-width="4" />
      <path d="M 210 107 l 4 3 l -4 3 m 6 -6 l 4 3 l -4 3 m 6 -6 l 4 3 l -4 3" stroke-width="1.6" fill="none" />
      <!-- Auslöser -->
      <path d="M 142 124 L 142 136 L 150 136" fill="none" stroke-width="3" />
      <!-- Drehrichtungs-Wahl -->
      <circle cx="150" cy="104" r="4" fill="#1a1a1a" />
    </g>
  
  </g>
</svg>
