<?xml version="1.0" encoding="UTF-8"?>
<svg xmlns="http://www.w3.org/2000/svg" viewBox="0 0 320 220" role="img" aria-label="die Atemschutzüberwachungstafel">
  <defs>
    <radialGradient id="paper" cx="50%" cy="50%" r="70%">
      <stop offset="0%" stop-color="#f7f1e1" />
      <stop offset="100%" stop-color="#e8dfc3" />
    </radialGradient>
    <filter id="sketch" x="-5%" y="-5%" width="110%" height="110%">
      <feTurbulence type="fractalNoise" baseFrequency="0.02" numOctaves="2" seed="757" />
      <feDisplacementMap in="SourceGraphic" scale="1.8" />
    </filter>
    <filter id="sketchLight" x="-5%" y="-5%" width="110%" height="110%">
      <feTurbulence type="fractalNoise" baseFrequency="0.04" numOctaves="1" seed="760" />
      <feDisplacementMap in="SourceGraphic" scale="1.1" />
    </filter>
  </defs>

  <!-- Papier-Hintergrund -->
  <rect width="320" height="220" fill="url(#paper)" />

  <!-- Doppel-Rahmen, leicht verzittert -->
  <g fill="none" stroke="#1a1a1a" stroke-linecap="round" stroke-linejoin="round" filter="url(#sketchLight)">
    <rect x="10" y="10" width="300" height="200" stroke-width="2.4" rx="4" />
    <rect x="15" y="15" width="290" height="190" stroke-width="1.2" rx="3" />
  </g>

  <!-- Pencil-Shading neben der Haupt-Silhouette -->
  <g stroke="#1a1a1a" stroke-width="1" opacity="0.18" filter="url(#sketchLight)">
    <line x1="38" y1="180" x2="78" y2="180" />
    <line x1="38" y1="186" x2="88" y2="186" />
    <line x1="38" y1="192" x2="70" y2="192" />
    <line x1="244" y1="46" x2="282" y2="46" />
    <line x1="244" y1="52" x2="276" y2="52" />
  </g>

  <!-- Haupt-Icon mit Sketch-Filter -->
  <g filter="url(#sketch)">
    
    <g stroke="#1a1a1a" stroke-width="3.5" stroke-linejoin="round" stroke-linecap="round">
      <!-- Tafelrahmen -->
      <rect x="80" y="54" width="160" height="112" rx="6" fill="#3aa0ff" />
      <rect x="86" y="60" width="148" height="100" fill="#ffffff" />
      <!-- Aufhängung / Griff -->
      <rect x="140" y="44" width="40" height="10" rx="3" fill="#1a1a1a" />
      <!-- Kartenschlitze (4x2 Grid) -->
      <rect x="94" y="70" width="60" height="30" rx="2" fill="#eaeaea" stroke-width="2" />
      <rect x="166" y="70" width="60" height="30" rx="2" fill="#eaeaea" stroke-width="2" />
      <rect x="94" y="108" width="60" height="30" rx="2" fill="#eaeaea" stroke-width="2" />
      <rect x="166" y="108" width="60" height="30" rx="2" fill="#eaeaea" stroke-width="2" />
      <!-- Uhr mit Zeigern -->
      <circle cx="160" cy="148" r="10" fill="#3aa0ff" />
      <line x1="160" y1="148" x2="160" y2="140" stroke-width="2" />
      <line x1="160" y1="148" x2="166" y2="148" stroke-width="2" />
      <!-- Kartendummies auf zwei Plätzen -->
      <rect x="100" y="76" width="48" height="20" fill="#3aa0ff" />
      <line x1="106" y1="86" x2="140" y2="86" stroke-width="1.6" stroke="#ffffff" />
    </g>
  
  </g>
</svg>
