<?xml version="1.0" encoding="UTF-8"?>
<svg xmlns="http://www.w3.org/2000/svg" viewBox="0 0 320 220" role="img" aria-label="die Atemschutzmaske D">
  <defs>
    <radialGradient id="paper" cx="50%" cy="50%" r="70%">
      <stop offset="0%" stop-color="#f7f1e1" />
      <stop offset="100%" stop-color="#e8dfc3" />
    </radialGradient>
    <filter id="sketch" x="-5%" y="-5%" width="110%" height="110%">
      <feTurbulence type="fractalNoise" baseFrequency="0.02" numOctaves="2" seed="319" />
      <feDisplacementMap in="SourceGraphic" scale="1.8" />
    </filter>
    <filter id="sketchLight" x="-5%" y="-5%" width="110%" height="110%">
      <feTurbulence type="fractalNoise" baseFrequency="0.04" numOctaves="1" seed="322" />
      <feDisplacementMap in="SourceGraphic" scale="1.1" />
    </filter>
  </defs>

  <!-- Papier-Hintergrund -->
  <rect width="320" height="220" fill="url(#paper)" />

  <!-- Doppel-Rahmen, leicht verzittert -->
  <g fill="none" stroke="#1a1a1a" stroke-linecap="round" stroke-linejoin="round" filter="url(#sketchLight)">
    <rect x="10" y="10" width="300" height="200" stroke-width="2.4" rx="4" />
    <rect x="15" y="15" width="290" height="190" stroke-width="1.2" rx="3" />
  </g>

  <!-- Pencil-Shading neben der Haupt-Silhouette -->
  <g stroke="#1a1a1a" stroke-width="1" opacity="0.18" filter="url(#sketchLight)">
    <line x1="38" y1="180" x2="78" y2="180" />
    <line x1="38" y1="186" x2="88" y2="186" />
    <line x1="38" y1="192" x2="70" y2="192" />
    <line x1="244" y1="46" x2="282" y2="46" />
    <line x1="244" y1="52" x2="276" y2="52" />
  </g>

  <!-- Haupt-Icon mit Sketch-Filter -->
  <g filter="url(#sketch)">
    
      <g stroke="#1a1a1a" stroke-width="3.5" stroke-linejoin="round" stroke-linecap="round">
        <!-- Maskenkörper -->
        <path d="M 100 100 Q 100 58 160 58 Q 220 58 220 100 L 200 150 Q 160 168 120 150 Z" fill="#3aa0ff" />
        <!-- Panorama-Sichtscheibe -->
        <path d="M 114 100 Q 110 72 160 70 Q 210 72 206 100 L 194 122 Q 160 130 126 122 Z" fill="#b8d8f0" />
        <!-- Glanz-Linie -->
        <path d="M 124 90 L 150 78" stroke="#ffffff" stroke-width="3" />
        <!-- Anschluss-Stutzen unten -->
        <rect x="146" y="146" width="28" height="20" fill="#1a1a1a" />
        <circle cx="160" cy="162" r="10" fill="#1a1a1a" />
        <circle cx="160" cy="162" r="4" fill="#3aa0ff" />
        <!-- Bänderung (Kopfspinne) -->
        <path d="M 100 90 L 82 80" stroke-width="3" />
        <path d="M 220 90 L 238 80" stroke-width="3" />
        <path d="M 104 130 L 84 126" stroke-width="3" />
        <path d="M 216 130 L 236 126" stroke-width="3" />
        <!-- Sitz-Punkte oben als Kennung -->
        <circle cx="142" cy="64" r="3" fill="#1a1a1a" stroke="#1a1a1a" stroke-width="1.2" /><circle cx="151" cy="64" r="3" fill="#1a1a1a" stroke="#1a1a1a" stroke-width="1.2" /><circle cx="160" cy="64" r="3" fill="#1a1a1a" stroke="#1a1a1a" stroke-width="1.2" /><circle cx="169" cy="64" r="3" fill="#1a1a1a" stroke="#1a1a1a" stroke-width="1.2" />
      </g>
    
  </g>
</svg>
