<?xml version="1.0" encoding="UTF-8"?>
<svg xmlns="http://www.w3.org/2000/svg" viewBox="0 0 320 220" role="img" aria-label="der Chemikalienschutzanzug">
  <defs>
    <radialGradient id="paper" cx="50%" cy="50%" r="70%">
      <stop offset="0%" stop-color="#f7f1e1" />
      <stop offset="100%" stop-color="#e8dfc3" />
    </radialGradient>
    <filter id="sketch" x="-5%" y="-5%" width="110%" height="110%">
      <feTurbulence type="fractalNoise" baseFrequency="0.02" numOctaves="2" seed="548" />
      <feDisplacementMap in="SourceGraphic" scale="1.8" />
    </filter>
    <filter id="sketchLight" x="-5%" y="-5%" width="110%" height="110%">
      <feTurbulence type="fractalNoise" baseFrequency="0.04" numOctaves="1" seed="551" />
      <feDisplacementMap in="SourceGraphic" scale="1.1" />
    </filter>
  </defs>

  <!-- Papier-Hintergrund -->
  <rect width="320" height="220" fill="url(#paper)" />

  <!-- Doppel-Rahmen, leicht verzittert -->
  <g fill="none" stroke="#1a1a1a" stroke-linecap="round" stroke-linejoin="round" filter="url(#sketchLight)">
    <rect x="10" y="10" width="300" height="200" stroke-width="2.4" rx="4" />
    <rect x="15" y="15" width="290" height="190" stroke-width="1.2" rx="3" />
  </g>

  <!-- Pencil-Shading neben der Haupt-Silhouette -->
  <g stroke="#1a1a1a" stroke-width="1" opacity="0.18" filter="url(#sketchLight)">
    <line x1="38" y1="180" x2="78" y2="180" />
    <line x1="38" y1="186" x2="88" y2="186" />
    <line x1="38" y1="192" x2="70" y2="192" />
    <line x1="244" y1="46" x2="282" y2="46" />
    <line x1="244" y1="52" x2="276" y2="52" />
  </g>

  <!-- Haupt-Icon mit Sketch-Filter -->
  <g filter="url(#sketch)">
    
      <g stroke="#1a1a1a" stroke-width="3.5" stroke-linejoin="round" stroke-linecap="round">
        <!-- Kapuze + Kopfbereich -->
        <path d="M 138 50 Q 132 30 160 30 Q 188 30 182 50 Z" fill="#f2b52f" />
        <!-- Sichtfenster -->
        <rect x="144" y="38" width="32" height="16" rx="3" fill="#b8d8f0" />
        <!-- Rumpf + Beine -->
        <path d="M 120 52 L 200 52 L 206 112 L 182 170 L 164 170 L 164 100 L 156 100 L 156 170 L 138 170 L 114 112 Z" fill="#f2b52f" />
        <!-- Arme -->
        <rect x="98" y="66" width="22" height="56" rx="5" fill="#f2b52f" />
        <rect x="200" y="66" width="22" height="56" rx="5" fill="#f2b52f" />
        <!-- Handschuhe/Enden -->
        <rect x="96" y="120" width="24" height="14" rx="3" fill="#1a1a1a" />
        <rect x="200" y="120" width="24" height="14" rx="3" fill="#1a1a1a" />
        
          <!-- Reißverschluss für CSA -->
          <line x1="160" y1="52" x2="160" y2="100" stroke-width="2" stroke-dasharray="3 3" />
          <!-- CSA-Stiefel -->
          <rect x="136" y="164" width="22" height="12" rx="2" fill="#1a1a1a" />
          <rect x="162" y="164" width="22" height="12" rx="2" fill="#1a1a1a" />
        
      </g>
    
  </g>
</svg>
