<?xml version="1.0" encoding="UTF-8"?>
<svg xmlns="http://www.w3.org/2000/svg" viewBox="0 0 320 220" role="img" aria-label="das CO-Warngerät">
  <defs>
    <radialGradient id="paper" cx="50%" cy="50%" r="70%">
      <stop offset="0%" stop-color="#f7f1e1" />
      <stop offset="100%" stop-color="#e8dfc3" />
    </radialGradient>
    <filter id="sketch" x="-5%" y="-5%" width="110%" height="110%">
      <feTurbulence type="fractalNoise" baseFrequency="0.02" numOctaves="2" seed="387" />
      <feDisplacementMap in="SourceGraphic" scale="1.8" />
    </filter>
    <filter id="sketchLight" x="-5%" y="-5%" width="110%" height="110%">
      <feTurbulence type="fractalNoise" baseFrequency="0.04" numOctaves="1" seed="390" />
      <feDisplacementMap in="SourceGraphic" scale="1.1" />
    </filter>
  </defs>

  <!-- Papier-Hintergrund -->
  <rect width="320" height="220" fill="url(#paper)" />

  <!-- Doppel-Rahmen, leicht verzittert -->
  <g fill="none" stroke="#1a1a1a" stroke-linecap="round" stroke-linejoin="round" filter="url(#sketchLight)">
    <rect x="10" y="10" width="300" height="200" stroke-width="2.4" rx="4" />
    <rect x="15" y="15" width="290" height="190" stroke-width="1.2" rx="3" />
  </g>

  <!-- Pencil-Shading neben der Haupt-Silhouette -->
  <g stroke="#1a1a1a" stroke-width="1" opacity="0.18" filter="url(#sketchLight)">
    <line x1="38" y1="180" x2="78" y2="180" />
    <line x1="38" y1="186" x2="88" y2="186" />
    <line x1="38" y1="192" x2="70" y2="192" />
    <line x1="244" y1="46" x2="282" y2="46" />
    <line x1="244" y1="52" x2="276" y2="52" />
  </g>

  <!-- Haupt-Icon mit Sketch-Filter -->
  <g filter="url(#sketch)">
    
      <g stroke="#1a1a1a" stroke-width="3.5" stroke-linejoin="round" stroke-linecap="round">
        <!-- Gehäuse -->
        <rect x="120" y="55" width="80" height="110" rx="8" fill="#9a5bd0" />
        <!-- Display -->
        <rect x="128" y="65" width="64" height="36" fill="#2a2a2a" />
        
          <!-- "CO"-Indikator (ohne Text: zwei Kreise) -->
          <circle cx="146" cy="99" r="8" fill="none" stroke-width="2.4" />
          <circle cx="174" cy="99" r="8" fill="none" stroke-width="2.4" />
        
        <!-- Sensorkopf oben -->
        <rect x="136" y="39" width="48" height="16" rx="3" fill="#f5c330" />
        <line x1="144" y1="47" x2="176" y2="47" stroke-width="1.6" />
        <!-- Tasten -->
        <circle cx="138" cy="122" r="6" fill="#1a1a1a" />
        <circle cx="160" cy="122" r="6" fill="#1a1a1a" />
        <circle cx="182" cy="122" r="6" fill="#1a1a1a" />
        <!-- Alarm-LED -->
        <circle cx="160" cy="149" r="6" fill="#d83a2a" />
        <!-- Clip / Trageband -->
        <rect x="144" y="33" width="32" height="8" rx="2" fill="#1a1a1a" />
      </g>
    
  </g>
</svg>
