<?xml version="1.0" encoding="UTF-8"?>
<svg xmlns="http://www.w3.org/2000/svg" viewBox="0 0 320 220" role="img" aria-label="der CO2-Löscher">
  <defs>
    <radialGradient id="paper" cx="50%" cy="50%" r="70%">
      <stop offset="0%" stop-color="#f7f1e1" />
      <stop offset="100%" stop-color="#e8dfc3" />
    </radialGradient>
    <filter id="sketch" x="-5%" y="-5%" width="110%" height="110%">
      <feTurbulence type="fractalNoise" baseFrequency="0.02" numOctaves="2" seed="676" />
      <feDisplacementMap in="SourceGraphic" scale="1.8" />
    </filter>
    <filter id="sketchLight" x="-5%" y="-5%" width="110%" height="110%">
      <feTurbulence type="fractalNoise" baseFrequency="0.04" numOctaves="1" seed="679" />
      <feDisplacementMap in="SourceGraphic" scale="1.1" />
    </filter>
  </defs>

  <!-- Papier-Hintergrund -->
  <rect width="320" height="220" fill="url(#paper)" />

  <!-- Doppel-Rahmen, leicht verzittert -->
  <g fill="none" stroke="#1a1a1a" stroke-linecap="round" stroke-linejoin="round" filter="url(#sketchLight)">
    <rect x="10" y="10" width="300" height="200" stroke-width="2.4" rx="4" />
    <rect x="15" y="15" width="290" height="190" stroke-width="1.2" rx="3" />
  </g>

  <!-- Pencil-Shading neben der Haupt-Silhouette -->
  <g stroke="#1a1a1a" stroke-width="1" opacity="0.18" filter="url(#sketchLight)">
    <line x1="38" y1="180" x2="78" y2="180" />
    <line x1="38" y1="186" x2="88" y2="186" />
    <line x1="38" y1="192" x2="70" y2="192" />
    <line x1="244" y1="46" x2="282" y2="46" />
    <line x1="244" y1="52" x2="276" y2="52" />
  </g>

  <!-- Haupt-Icon mit Sketch-Filter -->
  <g filter="url(#sketch)">
    
      <g stroke="#1a1a1a" stroke-width="3.5" stroke-linejoin="round" stroke-linecap="round">
        <!-- Flaschenkörper -->
        <path d="M 130 80 Q 130 68 142 68 L 178 68 Q 190 68 190 80 L 190 162 Q 190 170 182 170 L 138 170 Q 130 170 130 162 Z" fill="#1a1a1a" />
        <!-- Etikett -->
        <rect x="136" y="116" width="48" height="28" fill="#ffffff" />
        <line x1="140" y1="124" x2="180" y2="124" stroke-width="1.4" />
        <line x1="140" y1="132" x2="170" y2="132" stroke-width="1.4" />
        <!-- Ventilkopf -->
        <rect x="146" y="60" width="28" height="12" rx="2" fill="#1a1a1a" />
        <!-- Handhebel -->
        <path d="M 150 60 L 180 50 L 182 56" fill="#1a1a1a" />
        <!-- Manometer -->
        <circle cx="140" cy="78" r="6" fill="#ffffff" />
        
          <!-- CO2-Schneehorn -->
          <path d="M 184 72 L 218 92 L 218 108 L 238 120 L 220 124 L 212 106 L 182 90 Z" fill="#1a1a1a" />
        
      </g>
    
  </g>
</svg>
