<?xml version="1.0" encoding="UTF-8"?>
<svg xmlns="http://www.w3.org/2000/svg" viewBox="0 0 320 220" role="img" aria-label="das Druckbegrenzungsventil">
  <defs>
    <radialGradient id="paper" cx="50%" cy="50%" r="70%">
      <stop offset="0%" stop-color="#f7f1e1" />
      <stop offset="100%" stop-color="#e8dfc3" />
    </radialGradient>
    <filter id="sketch" x="-5%" y="-5%" width="110%" height="110%">
      <feTurbulence type="fractalNoise" baseFrequency="0.02" numOctaves="2" seed="31" />
      <feDisplacementMap in="SourceGraphic" scale="1.8" />
    </filter>
    <filter id="sketchLight" x="-5%" y="-5%" width="110%" height="110%">
      <feTurbulence type="fractalNoise" baseFrequency="0.04" numOctaves="1" seed="34" />
      <feDisplacementMap in="SourceGraphic" scale="1.1" />
    </filter>
  </defs>

  <!-- Papier-Hintergrund -->
  <rect width="320" height="220" fill="url(#paper)" />

  <!-- Doppel-Rahmen, leicht verzittert -->
  <g fill="none" stroke="#1a1a1a" stroke-linecap="round" stroke-linejoin="round" filter="url(#sketchLight)">
    <rect x="10" y="10" width="300" height="200" stroke-width="2.4" rx="4" />
    <rect x="15" y="15" width="290" height="190" stroke-width="1.2" rx="3" />
  </g>

  <!-- Pencil-Shading neben der Haupt-Silhouette -->
  <g stroke="#1a1a1a" stroke-width="1" opacity="0.18" filter="url(#sketchLight)">
    <line x1="38" y1="180" x2="78" y2="180" />
    <line x1="38" y1="186" x2="88" y2="186" />
    <line x1="38" y1="192" x2="70" y2="192" />
    <line x1="244" y1="46" x2="282" y2="46" />
    <line x1="244" y1="52" x2="276" y2="52" />
  </g>

  <!-- Haupt-Icon mit Sketch-Filter -->
  <g filter="url(#sketch)">
    
    <g stroke="#1a1a1a" stroke-width="3.5" stroke-linejoin="round" stroke-linecap="round">
      <!-- Durchflussrohr -->
      <rect x="90" y="110" width="140" height="30" rx="4" fill="#6aa0ff" />
      <!-- Kupplung links -->
      <rect x="82" y="104" width="14" height="42" rx="2" fill="#1a1a1a" />
      <!-- Kupplung rechts -->
      <rect x="222" y="104" width="14" height="42" rx="2" fill="#1a1a1a" />
      <!-- Ventilgehäuse aufgesetzt -->
      <rect x="142" y="82" width="36" height="32" fill="#6aa0ff" />
      <!-- Federzylinder -->
      <rect x="150" y="56" width="20" height="28" fill="#d0d0d0" />
      <!-- Feder-Windungen angedeutet -->
      <line x1="150" y1="62" x2="170" y2="66" stroke-width="1.4" />
      <line x1="150" y1="68" x2="170" y2="72" stroke-width="1.4" />
      <line x1="150" y1="74" x2="170" y2="78" stroke-width="1.4" />
      <!-- Einstellschraube oben -->
      <rect x="154" y="42" width="12" height="16" fill="#1a1a1a" />
      <path d="M 148 42 L 172 42" stroke-width="3" />
      <!-- Manometer seitlich -->
      <circle cx="196" cy="94" r="10" fill="#ffffff" />
      <line x1="196" y1="94" x2="202" y2="88" stroke-width="2" />
      <line x1="196" y1="94" x2="178" y2="106" stroke-width="1" />
    </g>
  
  </g>
</svg>
