<?xml version="1.0" encoding="UTF-8"?>
<svg xmlns="http://www.w3.org/2000/svg" viewBox="0 0 320 220" role="img" aria-label="die Ersatz-Pressluftflasche">
  <defs>
    <radialGradient id="paper" cx="50%" cy="50%" r="70%">
      <stop offset="0%" stop-color="#f7f1e1" />
      <stop offset="100%" stop-color="#e8dfc3" />
    </radialGradient>
    <filter id="sketch" x="-5%" y="-5%" width="110%" height="110%">
      <feTurbulence type="fractalNoise" baseFrequency="0.02" numOctaves="2" seed="170" />
      <feDisplacementMap in="SourceGraphic" scale="1.8" />
    </filter>
    <filter id="sketchLight" x="-5%" y="-5%" width="110%" height="110%">
      <feTurbulence type="fractalNoise" baseFrequency="0.04" numOctaves="1" seed="173" />
      <feDisplacementMap in="SourceGraphic" scale="1.1" />
    </filter>
  </defs>

  <!-- Papier-Hintergrund -->
  <rect width="320" height="220" fill="url(#paper)" />

  <!-- Doppel-Rahmen, leicht verzittert -->
  <g fill="none" stroke="#1a1a1a" stroke-linecap="round" stroke-linejoin="round" filter="url(#sketchLight)">
    <rect x="10" y="10" width="300" height="200" stroke-width="2.4" rx="4" />
    <rect x="15" y="15" width="290" height="190" stroke-width="1.2" rx="3" />
  </g>

  <!-- Pencil-Shading neben der Haupt-Silhouette -->
  <g stroke="#1a1a1a" stroke-width="1" opacity="0.18" filter="url(#sketchLight)">
    <line x1="38" y1="180" x2="78" y2="180" />
    <line x1="38" y1="186" x2="88" y2="186" />
    <line x1="38" y1="192" x2="70" y2="192" />
    <line x1="244" y1="46" x2="282" y2="46" />
    <line x1="244" y1="52" x2="276" y2="52" />
  </g>

  <!-- Haupt-Icon mit Sketch-Filter -->
  <g filter="url(#sketch)">
    
    <g stroke="#1a1a1a" stroke-width="3.5" stroke-linejoin="round" stroke-linecap="round">
      <!-- Flaschenkörper -->
      <path d="M 136 80 Q 136 66 148 66 L 172 66 Q 184 66 184 80 L 184 158 Q 184 166 176 166 L 144 166 Q 136 166 136 158 Z" fill="#3aa0ff" />
      <!-- Schulter-Rille -->
      <line x1="136" y1="90" x2="184" y2="90" stroke-width="2" />
      <!-- Ventilkopf -->
      <rect x="148" y="50" width="24" height="18" rx="3" fill="#1a1a1a" />
      <!-- Handrad -->
      <circle cx="160" cy="46" r="10" fill="#3aa0ff" />
      <line x1="150" y1="46" x2="170" y2="46" stroke-width="2" />
      <line x1="160" y1="36" x2="160" y2="56" stroke-width="2" />
      <!-- Manometer-Anschluss -->
      <path d="M 170 60 L 182 68" stroke-width="3" />
      <circle cx="186" cy="72" r="5" fill="#ffffff" />
      <!-- Standfuß -->
      <rect x="132" y="164" width="56" height="6" fill="#1a1a1a" />
    </g>
  
  </g>
</svg>
