<?xml version="1.0" encoding="UTF-8"?>
<svg xmlns="http://www.w3.org/2000/svg" viewBox="0 0 320 220" role="img" aria-label="das Handfunkgerät">
  <defs>
    <radialGradient id="paper" cx="50%" cy="50%" r="70%">
      <stop offset="0%" stop-color="#f7f1e1" />
      <stop offset="100%" stop-color="#e8dfc3" />
    </radialGradient>
    <filter id="sketch" x="-5%" y="-5%" width="110%" height="110%">
      <feTurbulence type="fractalNoise" baseFrequency="0.02" numOctaves="2" seed="977" />
      <feDisplacementMap in="SourceGraphic" scale="1.8" />
    </filter>
    <filter id="sketchLight" x="-5%" y="-5%" width="110%" height="110%">
      <feTurbulence type="fractalNoise" baseFrequency="0.04" numOctaves="1" seed="980" />
      <feDisplacementMap in="SourceGraphic" scale="1.1" />
    </filter>
  </defs>

  <!-- Papier-Hintergrund -->
  <rect width="320" height="220" fill="url(#paper)" />

  <!-- Doppel-Rahmen, leicht verzittert -->
  <g fill="none" stroke="#1a1a1a" stroke-linecap="round" stroke-linejoin="round" filter="url(#sketchLight)">
    <rect x="10" y="10" width="300" height="200" stroke-width="2.4" rx="4" />
    <rect x="15" y="15" width="290" height="190" stroke-width="1.2" rx="3" />
  </g>

  <!-- Pencil-Shading neben der Haupt-Silhouette -->
  <g stroke="#1a1a1a" stroke-width="1" opacity="0.18" filter="url(#sketchLight)">
    <line x1="38" y1="180" x2="78" y2="180" />
    <line x1="38" y1="186" x2="88" y2="186" />
    <line x1="38" y1="192" x2="70" y2="192" />
    <line x1="244" y1="46" x2="282" y2="46" />
    <line x1="244" y1="52" x2="276" y2="52" />
  </g>

  <!-- Haupt-Icon mit Sketch-Filter -->
  <g filter="url(#sketch)">
    
    <g stroke="#1a1a1a" stroke-width="3.5" stroke-linejoin="round" stroke-linecap="round">
      <!-- Antenne -->
      <rect x="140" y="40" width="10" height="34" rx="3" fill="#1a1a1a" />
      <circle cx="145" cy="36" r="4" fill="#1a1a1a" />
      <!-- Gehäuse -->
      <rect x="124" y="70" width="72" height="100" rx="6" fill="#7a5ad0" />
      <!-- Display -->
      <rect x="132" y="78" width="56" height="26" fill="#2a2a2a" />
      <rect x="138" y="84" width="44" height="4" fill="#50ff80" />
      <rect x="138" y="92" width="32" height="4" fill="#50ff80" />
      <!-- PTT-Taste links außen -->
      <rect x="120" y="96" width="6" height="30" rx="2" fill="#1a1a1a" />
      <!-- Lautsprecher-Gitter -->
      <circle cx="142" cy="114" r="1.4" fill="#1a1a1a" />
      <circle cx="150" cy="114" r="1.4" fill="#1a1a1a" />
      <circle cx="158" cy="114" r="1.4" fill="#1a1a1a" />
      <circle cx="166" cy="114" r="1.4" fill="#1a1a1a" />
      <circle cx="174" cy="114" r="1.4" fill="#1a1a1a" />
      <circle cx="182" cy="114" r="1.4" fill="#1a1a1a" />
      <!-- Tastatur -->
      <rect x="134" y="124" width="14" height="10" rx="2" fill="#1a1a1a" />
      <rect x="152" y="124" width="14" height="10" rx="2" fill="#1a1a1a" />
      <rect x="170" y="124" width="14" height="10" rx="2" fill="#1a1a1a" />
      <rect x="134" y="138" width="14" height="10" rx="2" fill="#1a1a1a" />
      <rect x="152" y="138" width="14" height="10" rx="2" fill="#1a1a1a" />
      <rect x="170" y="138" width="14" height="10" rx="2" fill="#1a1a1a" />
      <rect x="134" y="152" width="14" height="10" rx="2" fill="#1a1a1a" />
      <rect x="152" y="152" width="14" height="10" rx="2" fill="#1a1a1a" />
      <rect x="170" y="152" width="14" height="10" rx="2" fill="#1a1a1a" />
    </g>
  
  </g>
</svg>
