<?xml version="1.0" encoding="UTF-8"?>
<svg xmlns="http://www.w3.org/2000/svg" viewBox="0 0 320 220" role="img" aria-label="der Handscheinwerfer">
  <defs>
    <radialGradient id="paper" cx="50%" cy="50%" r="70%">
      <stop offset="0%" stop-color="#f7f1e1" />
      <stop offset="100%" stop-color="#e8dfc3" />
    </radialGradient>
    <filter id="sketch" x="-5%" y="-5%" width="110%" height="110%">
      <feTurbulence type="fractalNoise" baseFrequency="0.02" numOctaves="2" seed="896" />
      <feDisplacementMap in="SourceGraphic" scale="1.8" />
    </filter>
    <filter id="sketchLight" x="-5%" y="-5%" width="110%" height="110%">
      <feTurbulence type="fractalNoise" baseFrequency="0.04" numOctaves="1" seed="899" />
      <feDisplacementMap in="SourceGraphic" scale="1.1" />
    </filter>
  </defs>

  <!-- Papier-Hintergrund -->
  <rect width="320" height="220" fill="url(#paper)" />

  <!-- Doppel-Rahmen, leicht verzittert -->
  <g fill="none" stroke="#1a1a1a" stroke-linecap="round" stroke-linejoin="round" filter="url(#sketchLight)">
    <rect x="10" y="10" width="300" height="200" stroke-width="2.4" rx="4" />
    <rect x="15" y="15" width="290" height="190" stroke-width="1.2" rx="3" />
  </g>

  <!-- Pencil-Shading neben der Haupt-Silhouette -->
  <g stroke="#1a1a1a" stroke-width="1" opacity="0.18" filter="url(#sketchLight)">
    <line x1="38" y1="180" x2="78" y2="180" />
    <line x1="38" y1="186" x2="88" y2="186" />
    <line x1="38" y1="192" x2="70" y2="192" />
    <line x1="244" y1="46" x2="282" y2="46" />
    <line x1="244" y1="52" x2="276" y2="52" />
  </g>

  <!-- Haupt-Icon mit Sketch-Filter -->
  <g filter="url(#sketch)">
    
    <g stroke="#1a1a1a" stroke-width="3.5" stroke-linejoin="round" stroke-linecap="round">
      <!-- Reflektorkopf (trapezartig) -->
      <path d="M 130 72 L 200 80 L 200 140 L 130 148 Z" fill="#f5c330" />
      <!-- Linse -->
      <path d="M 200 80 L 210 84 L 210 136 L 200 140 Z" fill="#ffffff" />
      <!-- Griff (unten) -->
      <rect x="140" y="142" width="30" height="24" rx="4" fill="#1a1a1a" />
      <!-- Trigger -->
      <path d="M 150 142 L 150 132 L 160 132" fill="none" stroke-width="3" />
      <!-- Lichtstrahlen -->
      <line x1="216" y1="90" x2="232" y2="84" stroke-width="2" opacity="0.5" />
      <line x1="216" y1="110" x2="234" y2="110" stroke-width="2" opacity="0.5" />
      <line x1="216" y1="130" x2="232" y2="136" stroke-width="2" opacity="0.5" />
      <!-- Hängeöse hinten -->
      <path d="M 130 90 L 120 96" stroke-width="3" />
      <circle cx="118" cy="100" r="5" fill="none" stroke-width="3" />
    </g>
  
  </g>
</svg>
