<?xml version="1.0" encoding="UTF-8"?>
<svg xmlns="http://www.w3.org/2000/svg" viewBox="0 0 320 220" role="img" aria-label="das Leckdichtkissen">
  <defs>
    <radialGradient id="paper" cx="50%" cy="50%" r="70%">
      <stop offset="0%" stop-color="#f7f1e1" />
      <stop offset="100%" stop-color="#e8dfc3" />
    </radialGradient>
    <filter id="sketch" x="-5%" y="-5%" width="110%" height="110%">
      <feTurbulence type="fractalNoise" baseFrequency="0.02" numOctaves="2" seed="784" />
      <feDisplacementMap in="SourceGraphic" scale="1.8" />
    </filter>
    <filter id="sketchLight" x="-5%" y="-5%" width="110%" height="110%">
      <feTurbulence type="fractalNoise" baseFrequency="0.04" numOctaves="1" seed="787" />
      <feDisplacementMap in="SourceGraphic" scale="1.1" />
    </filter>
  </defs>

  <!-- Papier-Hintergrund -->
  <rect width="320" height="220" fill="url(#paper)" />

  <!-- Doppel-Rahmen, leicht verzittert -->
  <g fill="none" stroke="#1a1a1a" stroke-linecap="round" stroke-linejoin="round" filter="url(#sketchLight)">
    <rect x="10" y="10" width="300" height="200" stroke-width="2.4" rx="4" />
    <rect x="15" y="15" width="290" height="190" stroke-width="1.2" rx="3" />
  </g>

  <!-- Pencil-Shading neben der Haupt-Silhouette -->
  <g stroke="#1a1a1a" stroke-width="1" opacity="0.18" filter="url(#sketchLight)">
    <line x1="38" y1="180" x2="78" y2="180" />
    <line x1="38" y1="186" x2="88" y2="186" />
    <line x1="38" y1="192" x2="70" y2="192" />
    <line x1="244" y1="46" x2="282" y2="46" />
    <line x1="244" y1="52" x2="276" y2="52" />
  </g>

  <!-- Haupt-Icon mit Sketch-Filter -->
  <g filter="url(#sketch)">
    
    <g stroke="#1a1a1a" stroke-width="3.5" stroke-linejoin="round" stroke-linecap="round">
      <!-- Kissenkörper -->
      <rect x="90" y="72" width="140" height="76" rx="18" fill="#f2b52f" />
      <!-- Gewebe-Streifen (Sicherheits-Crosshatch) -->
      <line x1="100" y1="82" x2="220" y2="138" stroke-width="1.4" />
      <line x1="100" y1="98" x2="220" y2="122" stroke-width="1.4" />
      <line x1="100" y1="138" x2="220" y2="82" stroke-width="1.4" />
      <line x1="100" y1="122" x2="220" y2="98" stroke-width="1.4" />
      <!-- Ventil mit Schlauchanschluss -->
      <circle cx="100" cy="110" r="10" fill="#1a1a1a" />
      <circle cx="100" cy="110" r="4" fill="#f2b52f" />
      <path d="M 90 110 Q 68 100 70 78" fill="none" stroke-width="4" />
      <!-- Label -->
      <rect x="142" y="98" width="36" height="24" fill="#ffffff" />
      <line x1="150" y1="108" x2="170" y2="108" stroke-width="1.6" />
      <line x1="150" y1="116" x2="170" y2="116" stroke-width="1.6" />
    </g>
  
  </g>
</svg>
