<?xml version="1.0" encoding="UTF-8"?>
<svg xmlns="http://www.w3.org/2000/svg" viewBox="0 0 320 220" role="img" aria-label="die Motorkettensäge">
  <defs>
    <radialGradient id="paper" cx="50%" cy="50%" r="70%">
      <stop offset="0%" stop-color="#f7f1e1" />
      <stop offset="100%" stop-color="#e8dfc3" />
    </radialGradient>
    <filter id="sketch" x="-5%" y="-5%" width="110%" height="110%">
      <feTurbulence type="fractalNoise" baseFrequency="0.02" numOctaves="2" seed="119" />
      <feDisplacementMap in="SourceGraphic" scale="1.8" />
    </filter>
    <filter id="sketchLight" x="-5%" y="-5%" width="110%" height="110%">
      <feTurbulence type="fractalNoise" baseFrequency="0.04" numOctaves="1" seed="122" />
      <feDisplacementMap in="SourceGraphic" scale="1.1" />
    </filter>
  </defs>

  <!-- Papier-Hintergrund -->
  <rect width="320" height="220" fill="url(#paper)" />

  <!-- Doppel-Rahmen, leicht verzittert -->
  <g fill="none" stroke="#1a1a1a" stroke-linecap="round" stroke-linejoin="round" filter="url(#sketchLight)">
    <rect x="10" y="10" width="300" height="200" stroke-width="2.4" rx="4" />
    <rect x="15" y="15" width="290" height="190" stroke-width="1.2" rx="3" />
  </g>

  <!-- Pencil-Shading neben der Haupt-Silhouette -->
  <g stroke="#1a1a1a" stroke-width="1" opacity="0.18" filter="url(#sketchLight)">
    <line x1="38" y1="180" x2="78" y2="180" />
    <line x1="38" y1="186" x2="88" y2="186" />
    <line x1="38" y1="192" x2="70" y2="192" />
    <line x1="244" y1="46" x2="282" y2="46" />
    <line x1="244" y1="52" x2="276" y2="52" />
  </g>

  <!-- Haupt-Icon mit Sketch-Filter -->
  <g filter="url(#sketch)">
    
    <g stroke="#1a1a1a" stroke-width="3.5" stroke-linejoin="round" stroke-linecap="round">
      <!-- Motorgehäuse -->
      <rect x="85" y="90" width="60" height="40" rx="6" fill="#b47a30" />
      <!-- Tankdeckel -->
      <circle cx="95" cy="98" r="5" fill="#1a1a1a" />
      <!-- Griffbügel oben -->
      <path d="M 100 90 Q 100 70 130 70 Q 148 70 148 90" fill="none" stroke-width="3.5" />
      <!-- Hinterer Griff -->
      <path d="M 84 118 Q 76 124 86 130 L 100 130 L 100 118" fill="#b47a30" />
      <!-- Schwert -->
      <path d="M 145 102 L 230 100 Q 242 110 230 120 L 145 118 Z" fill="#d0d0d0" />
      <!-- Kette: kurze Striche -->
      <line x1="152" y1="100" x2="226" y2="98" stroke-width="1.4" stroke-dasharray="4 3" />
      <line x1="152" y1="120" x2="226" y2="122" stroke-width="1.4" stroke-dasharray="4 3" />
      <!-- Schwertnase -->
      <circle cx="232" cy="110" r="5" fill="#d0d0d0" />
    </g>
  
  </g>
</svg>
