<?xml version="1.0" encoding="UTF-8"?>
<svg xmlns="http://www.w3.org/2000/svg" viewBox="0 0 320 220" role="img" aria-label="das Ölbindemittel">
  <defs>
    <radialGradient id="paper" cx="50%" cy="50%" r="70%">
      <stop offset="0%" stop-color="#f7f1e1" />
      <stop offset="100%" stop-color="#e8dfc3" />
    </radialGradient>
    <filter id="sketch" x="-5%" y="-5%" width="110%" height="110%">
      <feTurbulence type="fractalNoise" baseFrequency="0.02" numOctaves="2" seed="931" />
      <feDisplacementMap in="SourceGraphic" scale="1.8" />
    </filter>
    <filter id="sketchLight" x="-5%" y="-5%" width="110%" height="110%">
      <feTurbulence type="fractalNoise" baseFrequency="0.04" numOctaves="1" seed="934" />
      <feDisplacementMap in="SourceGraphic" scale="1.1" />
    </filter>
  </defs>

  <!-- Papier-Hintergrund -->
  <rect width="320" height="220" fill="url(#paper)" />

  <!-- Doppel-Rahmen, leicht verzittert -->
  <g fill="none" stroke="#1a1a1a" stroke-linecap="round" stroke-linejoin="round" filter="url(#sketchLight)">
    <rect x="10" y="10" width="300" height="200" stroke-width="2.4" rx="4" />
    <rect x="15" y="15" width="290" height="190" stroke-width="1.2" rx="3" />
  </g>

  <!-- Pencil-Shading neben der Haupt-Silhouette -->
  <g stroke="#1a1a1a" stroke-width="1" opacity="0.18" filter="url(#sketchLight)">
    <line x1="38" y1="180" x2="78" y2="180" />
    <line x1="38" y1="186" x2="88" y2="186" />
    <line x1="38" y1="192" x2="70" y2="192" />
    <line x1="244" y1="46" x2="282" y2="46" />
    <line x1="244" y1="52" x2="276" y2="52" />
  </g>

  <!-- Haupt-Icon mit Sketch-Filter -->
  <g filter="url(#sketch)">
    
    <g stroke="#1a1a1a" stroke-width="3.5" stroke-linejoin="round" stroke-linecap="round">
      <!-- Sackform -->
      <path d="M 110 74 Q 130 60 160 60 Q 190 60 210 74 L 220 158 Q 220 164 212 164 L 108 164 Q 100 164 100 158 Z" fill="#f2b52f" />
      <!-- Verschluss-Band oben -->
      <rect x="130" y="60" width="60" height="10" rx="3" fill="#1a1a1a" />
      <!-- Granulat (Punkte) -->
      <circle cx="128" cy="100" r="2" fill="#1a1a1a" />
      <circle cx="140" cy="106" r="2" fill="#1a1a1a" />
      <circle cx="154" cy="96" r="2" fill="#1a1a1a" />
      <circle cx="170" cy="104" r="2" fill="#1a1a1a" />
      <circle cx="186" cy="94" r="2" fill="#1a1a1a" />
      <circle cx="132" cy="122" r="2" fill="#1a1a1a" />
      <circle cx="150" cy="128" r="2" fill="#1a1a1a" />
      <circle cx="168" cy="124" r="2" fill="#1a1a1a" />
      <circle cx="190" cy="118" r="2" fill="#1a1a1a" />
      <circle cx="144" cy="146" r="2" fill="#1a1a1a" />
      <circle cx="174" cy="144" r="2" fill="#1a1a1a" />
      <!-- Etikett -->
      <rect x="136" y="78" width="48" height="16" fill="#ffffff" />
      <line x1="142" y1="86" x2="178" y2="86" stroke-width="1.6" />
    </g>
  
  </g>
</svg>
