<?xml version="1.0" encoding="UTF-8"?>
<svg xmlns="http://www.w3.org/2000/svg" viewBox="0 0 320 220" role="img" aria-label="die Säbelsäge">
  <defs>
    <radialGradient id="paper" cx="50%" cy="50%" r="70%">
      <stop offset="0%" stop-color="#f7f1e1" />
      <stop offset="100%" stop-color="#e8dfc3" />
    </radialGradient>
    <filter id="sketch" x="-5%" y="-5%" width="110%" height="110%">
      <feTurbulence type="fractalNoise" baseFrequency="0.02" numOctaves="2" seed="809" />
      <feDisplacementMap in="SourceGraphic" scale="1.8" />
    </filter>
    <filter id="sketchLight" x="-5%" y="-5%" width="110%" height="110%">
      <feTurbulence type="fractalNoise" baseFrequency="0.04" numOctaves="1" seed="812" />
      <feDisplacementMap in="SourceGraphic" scale="1.1" />
    </filter>
  </defs>

  <!-- Papier-Hintergrund -->
  <rect width="320" height="220" fill="url(#paper)" />

  <!-- Doppel-Rahmen, leicht verzittert -->
  <g fill="none" stroke="#1a1a1a" stroke-linecap="round" stroke-linejoin="round" filter="url(#sketchLight)">
    <rect x="10" y="10" width="300" height="200" stroke-width="2.4" rx="4" />
    <rect x="15" y="15" width="290" height="190" stroke-width="1.2" rx="3" />
  </g>

  <!-- Pencil-Shading neben der Haupt-Silhouette -->
  <g stroke="#1a1a1a" stroke-width="1" opacity="0.18" filter="url(#sketchLight)">
    <line x1="38" y1="180" x2="78" y2="180" />
    <line x1="38" y1="186" x2="88" y2="186" />
    <line x1="38" y1="192" x2="70" y2="192" />
    <line x1="244" y1="46" x2="282" y2="46" />
    <line x1="244" y1="52" x2="276" y2="52" />
  </g>

  <!-- Haupt-Icon mit Sketch-Filter -->
  <g filter="url(#sketch)">
    
    <g stroke="#1a1a1a" stroke-width="3.5" stroke-linejoin="round" stroke-linecap="round">
      <!-- Korpus -->
      <rect x="90" y="92" width="60" height="36" rx="8" fill="#b47a30" />
      <!-- Griff oben -->
      <path d="M 100 92 Q 108 72 128 72 Q 146 72 146 92" fill="#b47a30" />
      <!-- Akku hinten -->
      <rect x="74" y="128" width="30" height="20" rx="3" fill="#1a1a1a" />
      <!-- Schuh (Anschlag) -->
      <rect x="144" y="102" width="12" height="18" rx="2" fill="#1a1a1a" />
      <!-- Sägeblatt mit Zähnen -->
      <rect x="156" y="106" width="70" height="10" fill="#d0d0d0" />
      <path d="M 156 116 l 5 5 l 5 -5 l 5 5 l 5 -5 l 5 5 l 5 -5 l 5 5 l 5 -5 l 5 5 l 5 -5 l 5 5 l 5 -5 l 5 5 l 5 -5" fill="#1a1a1a" stroke-width="1.2" />
      <!-- Auslöser -->
      <path d="M 118 128 L 118 140 L 126 140" fill="none" stroke-width="3" />
    </g>
  
  </g>
</svg>
