<?xml version="1.0" encoding="UTF-8"?>
<svg xmlns="http://www.w3.org/2000/svg" viewBox="0 0 320 220" role="img" aria-label="das Sammelstück">
  <defs>
    <radialGradient id="paper" cx="50%" cy="50%" r="70%">
      <stop offset="0%" stop-color="#f7f1e1" />
      <stop offset="100%" stop-color="#e8dfc3" />
    </radialGradient>
    <filter id="sketch" x="-5%" y="-5%" width="110%" height="110%">
      <feTurbulence type="fractalNoise" baseFrequency="0.02" numOctaves="2" seed="2" />
      <feDisplacementMap in="SourceGraphic" scale="1.8" />
    </filter>
    <filter id="sketchLight" x="-5%" y="-5%" width="110%" height="110%">
      <feTurbulence type="fractalNoise" baseFrequency="0.04" numOctaves="1" seed="5" />
      <feDisplacementMap in="SourceGraphic" scale="1.1" />
    </filter>
  </defs>

  <!-- Papier-Hintergrund -->
  <rect width="320" height="220" fill="url(#paper)" />

  <!-- Doppel-Rahmen, leicht verzittert -->
  <g fill="none" stroke="#1a1a1a" stroke-linecap="round" stroke-linejoin="round" filter="url(#sketchLight)">
    <rect x="10" y="10" width="300" height="200" stroke-width="2.4" rx="4" />
    <rect x="15" y="15" width="290" height="190" stroke-width="1.2" rx="3" />
  </g>

  <!-- Pencil-Shading neben der Haupt-Silhouette -->
  <g stroke="#1a1a1a" stroke-width="1" opacity="0.18" filter="url(#sketchLight)">
    <line x1="38" y1="180" x2="78" y2="180" />
    <line x1="38" y1="186" x2="88" y2="186" />
    <line x1="38" y1="192" x2="70" y2="192" />
    <line x1="244" y1="46" x2="282" y2="46" />
    <line x1="244" y1="52" x2="276" y2="52" />
  </g>

  <!-- Haupt-Icon mit Sketch-Filter -->
  <g filter="url(#sketch)">
    
    <g stroke="#1a1a1a" stroke-width="3.5" stroke-linejoin="round" stroke-linecap="round">
      <!-- Zwei Eingangsarme (B) -->
      <path d="M 90 70 L 110 70 L 150 106 L 130 114 Z" fill="#6aa0ff" />
      <path d="M 90 150 L 110 150 L 150 114 L 130 106 Z" fill="#6aa0ff" />
      <!-- Gehäusemitte (Klappen) -->
      <circle cx="142" cy="110" r="14" fill="#1a1a1a" />
      <!-- Sammelrohr (A) -->
      <rect x="150" y="94" width="76" height="32" rx="4" fill="#6aa0ff" />
      <!-- Kupplung am Auslass -->
      <rect x="226" y="88" width="14" height="44" rx="2" fill="#1a1a1a" />
      <!-- Kupplungen Eingänge -->
      <rect x="78" y="60" width="14" height="24" rx="2" fill="#1a1a1a" />
      <rect x="78" y="136" width="14" height="24" rx="2" fill="#1a1a1a" />
    </g>
  
  </g>
</svg>
