<?xml version="1.0" encoding="UTF-8"?>
<svg xmlns="http://www.w3.org/2000/svg" viewBox="0 0 320 220" role="img" aria-label="die Sauerstoffflasche">
  <defs>
    <radialGradient id="paper" cx="50%" cy="50%" r="70%">
      <stop offset="0%" stop-color="#f7f1e1" />
      <stop offset="100%" stop-color="#e8dfc3" />
    </radialGradient>
    <filter id="sketch" x="-5%" y="-5%" width="110%" height="110%">
      <feTurbulence type="fractalNoise" baseFrequency="0.02" numOctaves="2" seed="302" />
      <feDisplacementMap in="SourceGraphic" scale="1.8" />
    </filter>
    <filter id="sketchLight" x="-5%" y="-5%" width="110%" height="110%">
      <feTurbulence type="fractalNoise" baseFrequency="0.04" numOctaves="1" seed="305" />
      <feDisplacementMap in="SourceGraphic" scale="1.1" />
    </filter>
  </defs>

  <!-- Papier-Hintergrund -->
  <rect width="320" height="220" fill="url(#paper)" />

  <!-- Doppel-Rahmen, leicht verzittert -->
  <g fill="none" stroke="#1a1a1a" stroke-linecap="round" stroke-linejoin="round" filter="url(#sketchLight)">
    <rect x="10" y="10" width="300" height="200" stroke-width="2.4" rx="4" />
    <rect x="15" y="15" width="290" height="190" stroke-width="1.2" rx="3" />
  </g>

  <!-- Pencil-Shading neben der Haupt-Silhouette -->
  <g stroke="#1a1a1a" stroke-width="1" opacity="0.18" filter="url(#sketchLight)">
    <line x1="38" y1="180" x2="78" y2="180" />
    <line x1="38" y1="186" x2="88" y2="186" />
    <line x1="38" y1="192" x2="70" y2="192" />
    <line x1="244" y1="46" x2="282" y2="46" />
    <line x1="244" y1="52" x2="276" y2="52" />
  </g>

  <!-- Haupt-Icon mit Sketch-Filter -->
  <g filter="url(#sketch)">
    
    <g stroke="#1a1a1a" stroke-width="3.5" stroke-linejoin="round" stroke-linecap="round">
      <!-- Flaschenkörper (etwas schlanker) -->
      <path d="M 138 76 Q 138 64 148 64 L 172 64 Q 182 64 182 76 L 182 162 Q 182 170 174 170 L 146 170 Q 138 170 138 162 Z" fill="#ffffff" />
      <!-- Grünes Schulterband -->
      <rect x="138" y="74" width="44" height="14" fill="#2ea86a" />
      <!-- Ventil -->
      <rect x="150" y="52" width="20" height="14" fill="#1a1a1a" />
      <!-- Druckminderer -->
      <rect x="156" y="40" width="28" height="12" fill="#1a1a1a" />
      <circle cx="180" cy="54" r="8" fill="#ffffff" />
      <!-- Label mit Kreuz -->
      <rect x="146" y="116" width="28" height="36" fill="#2ea86a" />
      <rect x="156" y="124" width="8" height="20" fill="#ffffff" />
      <rect x="150" y="130" width="20" height="8" fill="#ffffff" />
      <!-- Standfuß -->
      <rect x="136" y="168" width="48" height="6" fill="#1a1a1a" />
    </g>
  
  </g>
</svg>
