<?xml version="1.0" encoding="UTF-8"?>
<svg xmlns="http://www.w3.org/2000/svg" viewBox="0 0 320 220" role="img" aria-label="der Schaummittelbehälter">
  <defs>
    <radialGradient id="paper" cx="50%" cy="50%" r="70%">
      <stop offset="0%" stop-color="#f7f1e1" />
      <stop offset="100%" stop-color="#e8dfc3" />
    </radialGradient>
    <filter id="sketch" x="-5%" y="-5%" width="110%" height="110%">
      <feTurbulence type="fractalNoise" baseFrequency="0.02" numOctaves="2" seed="592" />
      <feDisplacementMap in="SourceGraphic" scale="1.8" />
    </filter>
    <filter id="sketchLight" x="-5%" y="-5%" width="110%" height="110%">
      <feTurbulence type="fractalNoise" baseFrequency="0.04" numOctaves="1" seed="595" />
      <feDisplacementMap in="SourceGraphic" scale="1.1" />
    </filter>
  </defs>

  <!-- Papier-Hintergrund -->
  <rect width="320" height="220" fill="url(#paper)" />

  <!-- Doppel-Rahmen, leicht verzittert -->
  <g fill="none" stroke="#1a1a1a" stroke-linecap="round" stroke-linejoin="round" filter="url(#sketchLight)">
    <rect x="10" y="10" width="300" height="200" stroke-width="2.4" rx="4" />
    <rect x="15" y="15" width="290" height="190" stroke-width="1.2" rx="3" />
  </g>

  <!-- Pencil-Shading neben der Haupt-Silhouette -->
  <g stroke="#1a1a1a" stroke-width="1" opacity="0.18" filter="url(#sketchLight)">
    <line x1="38" y1="180" x2="78" y2="180" />
    <line x1="38" y1="186" x2="88" y2="186" />
    <line x1="38" y1="192" x2="70" y2="192" />
    <line x1="244" y1="46" x2="282" y2="46" />
    <line x1="244" y1="52" x2="276" y2="52" />
  </g>

  <!-- Haupt-Icon mit Sketch-Filter -->
  <g filter="url(#sketch)">
    
    <g stroke="#1a1a1a" stroke-width="3.5" stroke-linejoin="round" stroke-linecap="round">
      <!-- Korpus (Kanister) -->
      <path d="M 116 78 L 116 164 L 204 164 L 204 78 L 180 78 L 180 60 L 156 60 L 156 78 Z" fill="#d83a2a" />
      <!-- Schraubverschluss -->
      <rect x="154" y="50" width="28" height="12" rx="2" fill="#1a1a1a" />
      <line x1="156" y1="56" x2="180" y2="56" stroke-width="1.6" />
      <!-- Tragegriff integriert (Öffnung) -->
      <rect x="124" y="88" width="24" height="10" rx="3" fill="#f7f1e1" />
      <!-- Etikett -->
      <rect x="128" y="116" width="64" height="32" fill="#ffffff" />
      <!-- Schaum-Blasen auf Etikett -->
      <circle cx="146" cy="132" r="6" fill="none" stroke-width="2.4" />
      <circle cx="162" cy="126" r="5" fill="none" stroke-width="2.4" />
      <circle cx="174" cy="136" r="4" fill="none" stroke-width="2.4" />
    </g>
  
  </g>
</svg>
