<?xml version="1.0" encoding="UTF-8"?>
<svg xmlns="http://www.w3.org/2000/svg" viewBox="0 0 320 220" role="img" aria-label="die Schleifkorbtrage">
  <defs>
    <radialGradient id="paper" cx="50%" cy="50%" r="70%">
      <stop offset="0%" stop-color="#f7f1e1" />
      <stop offset="100%" stop-color="#e8dfc3" />
    </radialGradient>
    <filter id="sketch" x="-5%" y="-5%" width="110%" height="110%">
      <feTurbulence type="fractalNoise" baseFrequency="0.02" numOctaves="2" seed="9" />
      <feDisplacementMap in="SourceGraphic" scale="1.8" />
    </filter>
    <filter id="sketchLight" x="-5%" y="-5%" width="110%" height="110%">
      <feTurbulence type="fractalNoise" baseFrequency="0.04" numOctaves="1" seed="12" />
      <feDisplacementMap in="SourceGraphic" scale="1.1" />
    </filter>
  </defs>

  <!-- Papier-Hintergrund -->
  <rect width="320" height="220" fill="url(#paper)" />

  <!-- Doppel-Rahmen, leicht verzittert -->
  <g fill="none" stroke="#1a1a1a" stroke-linecap="round" stroke-linejoin="round" filter="url(#sketchLight)">
    <rect x="10" y="10" width="300" height="200" stroke-width="2.4" rx="4" />
    <rect x="15" y="15" width="290" height="190" stroke-width="1.2" rx="3" />
  </g>

  <!-- Pencil-Shading neben der Haupt-Silhouette -->
  <g stroke="#1a1a1a" stroke-width="1" opacity="0.18" filter="url(#sketchLight)">
    <line x1="38" y1="180" x2="78" y2="180" />
    <line x1="38" y1="186" x2="88" y2="186" />
    <line x1="38" y1="192" x2="70" y2="192" />
    <line x1="244" y1="46" x2="282" y2="46" />
    <line x1="244" y1="52" x2="276" y2="52" />
  </g>

  <!-- Haupt-Icon mit Sketch-Filter -->
  <g filter="url(#sketch)">
    
    <g stroke="#1a1a1a" stroke-width="3.5" stroke-linejoin="round" stroke-linecap="round">
      <!-- Korbform -->
      <path d="M 90 100 Q 85 130 105 140 L 215 140 Q 235 130 230 100 Z" fill="#e05a85" />
      <!-- Gitterstreben -->
      <line x1="110" y1="106" x2="118" y2="138" stroke-width="2" />
      <line x1="135" y1="102" x2="140" y2="138" stroke-width="2" />
      <line x1="160" y1="100" x2="160" y2="140" stroke-width="2" />
      <line x1="185" y1="102" x2="180" y2="138" stroke-width="2" />
      <line x1="210" y1="106" x2="202" y2="138" stroke-width="2" />
      <line x1="92" y1="114" x2="228" y2="114" stroke-width="2" />
      <line x1="96" y1="128" x2="224" y2="128" stroke-width="2" />
      <!-- Griffe links/rechts -->
      <path d="M 90 100 Q 78 90 88 80" fill="none" stroke-width="4" />
      <path d="M 230 100 Q 242 90 232 80" fill="none" stroke-width="4" />
    </g>
  
  </g>
</svg>
