<?xml version="1.0" encoding="UTF-8"?>
<svg xmlns="http://www.w3.org/2000/svg" viewBox="0 0 320 220" role="img" aria-label="die Schlauchbrücke">
  <defs>
    <radialGradient id="paper" cx="50%" cy="50%" r="70%">
      <stop offset="0%" stop-color="#f7f1e1" />
      <stop offset="100%" stop-color="#e8dfc3" />
    </radialGradient>
    <filter id="sketch" x="-5%" y="-5%" width="110%" height="110%">
      <feTurbulence type="fractalNoise" baseFrequency="0.02" numOctaves="2" seed="150" />
      <feDisplacementMap in="SourceGraphic" scale="1.8" />
    </filter>
    <filter id="sketchLight" x="-5%" y="-5%" width="110%" height="110%">
      <feTurbulence type="fractalNoise" baseFrequency="0.04" numOctaves="1" seed="153" />
      <feDisplacementMap in="SourceGraphic" scale="1.1" />
    </filter>
  </defs>

  <!-- Papier-Hintergrund -->
  <rect width="320" height="220" fill="url(#paper)" />

  <!-- Doppel-Rahmen, leicht verzittert -->
  <g fill="none" stroke="#1a1a1a" stroke-linecap="round" stroke-linejoin="round" filter="url(#sketchLight)">
    <rect x="10" y="10" width="300" height="200" stroke-width="2.4" rx="4" />
    <rect x="15" y="15" width="290" height="190" stroke-width="1.2" rx="3" />
  </g>

  <!-- Pencil-Shading neben der Haupt-Silhouette -->
  <g stroke="#1a1a1a" stroke-width="1" opacity="0.18" filter="url(#sketchLight)">
    <line x1="38" y1="180" x2="78" y2="180" />
    <line x1="38" y1="186" x2="88" y2="186" />
    <line x1="38" y1="192" x2="70" y2="192" />
    <line x1="244" y1="46" x2="282" y2="46" />
    <line x1="244" y1="52" x2="276" y2="52" />
  </g>

  <!-- Haupt-Icon mit Sketch-Filter -->
  <g filter="url(#sketch)">
    
    <g stroke="#1a1a1a" stroke-width="3.5" stroke-linejoin="round" stroke-linecap="round">
      <!-- Rampenkörper (Trapez) -->
      <path d="M 70 140 L 100 90 L 220 90 L 250 140 Z" fill="#2e8bff" />
      <!-- Fahrflächen-Oberseite -->
      <rect x="100" y="86" width="120" height="8" rx="2" fill="#1a1a1a" />
      <!-- Schlauch-Rinnen -->
      <rect x="120" y="92" width="22" height="10" rx="3" fill="#f7f1e1" />
      <rect x="150" y="92" width="22" height="10" rx="3" fill="#f7f1e1" />
      <rect x="180" y="92" width="22" height="10" rx="3" fill="#f7f1e1" />
      <!-- Bodenlinie -->
      <line x1="70" y1="140" x2="250" y2="140" stroke-width="2" />
      <!-- Schrägstreifen -->
      <line x1="80" y1="126" x2="92" y2="110" stroke-width="1.8" />
      <line x1="90" y1="136" x2="106" y2="114" stroke-width="1.8" />
      <line x1="240" y1="126" x2="228" y2="110" stroke-width="1.8" />
      <line x1="230" y1="136" x2="214" y2="114" stroke-width="1.8" />
    </g>
  
  </g>
</svg>
