<?xml version="1.0" encoding="UTF-8"?>
<svg xmlns="http://www.w3.org/2000/svg" viewBox="0 0 320 220" role="img" aria-label="der Stützkrümmer">
  <defs>
    <radialGradient id="paper" cx="50%" cy="50%" r="70%">
      <stop offset="0%" stop-color="#f7f1e1" />
      <stop offset="100%" stop-color="#e8dfc3" />
    </radialGradient>
    <filter id="sketch" x="-5%" y="-5%" width="110%" height="110%">
      <feTurbulence type="fractalNoise" baseFrequency="0.02" numOctaves="2" seed="585" />
      <feDisplacementMap in="SourceGraphic" scale="1.8" />
    </filter>
    <filter id="sketchLight" x="-5%" y="-5%" width="110%" height="110%">
      <feTurbulence type="fractalNoise" baseFrequency="0.04" numOctaves="1" seed="588" />
      <feDisplacementMap in="SourceGraphic" scale="1.1" />
    </filter>
  </defs>

  <!-- Papier-Hintergrund -->
  <rect width="320" height="220" fill="url(#paper)" />

  <!-- Doppel-Rahmen, leicht verzittert -->
  <g fill="none" stroke="#1a1a1a" stroke-linecap="round" stroke-linejoin="round" filter="url(#sketchLight)">
    <rect x="10" y="10" width="300" height="200" stroke-width="2.4" rx="4" />
    <rect x="15" y="15" width="290" height="190" stroke-width="1.2" rx="3" />
  </g>

  <!-- Pencil-Shading neben der Haupt-Silhouette -->
  <g stroke="#1a1a1a" stroke-width="1" opacity="0.18" filter="url(#sketchLight)">
    <line x1="38" y1="180" x2="78" y2="180" />
    <line x1="38" y1="186" x2="88" y2="186" />
    <line x1="38" y1="192" x2="70" y2="192" />
    <line x1="244" y1="46" x2="282" y2="46" />
    <line x1="244" y1="52" x2="276" y2="52" />
  </g>

  <!-- Haupt-Icon mit Sketch-Filter -->
  <g filter="url(#sketch)">
    
    <g stroke="#1a1a1a" stroke-width="3.5" stroke-linejoin="round" stroke-linecap="round">
      <!-- Vertikaler Einlass -->
      <rect x="140" y="56" width="40" height="40" fill="#6aa0ff" />
      <!-- Kupplung oben -->
      <rect x="134" y="50" width="52" height="14" rx="2" fill="#1a1a1a" />
      <!-- 90° Bogen -->
      <path d="M 140 96 Q 140 136 180 136 L 180 96 Q 180 116 160 116 Q 140 116 140 96 Z" fill="#6aa0ff" />
      <!-- Horizontaler Auslass -->
      <rect x="180" y="116" width="56" height="40" fill="#6aa0ff" />
      <!-- Kupplung rechts -->
      <rect x="232" y="110" width="14" height="52" rx="2" fill="#1a1a1a" />
      <!-- Stütze / Standfuß -->
      <rect x="154" y="136" width="12" height="28" fill="#1a1a1a" />
      <rect x="134" y="162" width="52" height="10" rx="2" fill="#1a1a1a" />
    </g>
  
  </g>
</svg>
