<?xml version="1.0" encoding="UTF-8"?>
<svg xmlns="http://www.w3.org/2000/svg" viewBox="0 0 320 220" role="img" aria-label="die Tauchpumpe">
  <defs>
    <radialGradient id="paper" cx="50%" cy="50%" r="70%">
      <stop offset="0%" stop-color="#f7f1e1" />
      <stop offset="100%" stop-color="#e8dfc3" />
    </radialGradient>
    <filter id="sketch" x="-5%" y="-5%" width="110%" height="110%">
      <feTurbulence type="fractalNoise" baseFrequency="0.02" numOctaves="2" seed="896" />
      <feDisplacementMap in="SourceGraphic" scale="1.8" />
    </filter>
    <filter id="sketchLight" x="-5%" y="-5%" width="110%" height="110%">
      <feTurbulence type="fractalNoise" baseFrequency="0.04" numOctaves="1" seed="899" />
      <feDisplacementMap in="SourceGraphic" scale="1.1" />
    </filter>
  </defs>

  <!-- Papier-Hintergrund -->
  <rect width="320" height="220" fill="url(#paper)" />

  <!-- Doppel-Rahmen, leicht verzittert -->
  <g fill="none" stroke="#1a1a1a" stroke-linecap="round" stroke-linejoin="round" filter="url(#sketchLight)">
    <rect x="10" y="10" width="300" height="200" stroke-width="2.4" rx="4" />
    <rect x="15" y="15" width="290" height="190" stroke-width="1.2" rx="3" />
  </g>

  <!-- Pencil-Shading neben der Haupt-Silhouette -->
  <g stroke="#1a1a1a" stroke-width="1" opacity="0.18" filter="url(#sketchLight)">
    <line x1="38" y1="180" x2="78" y2="180" />
    <line x1="38" y1="186" x2="88" y2="186" />
    <line x1="38" y1="192" x2="70" y2="192" />
    <line x1="244" y1="46" x2="282" y2="46" />
    <line x1="244" y1="52" x2="276" y2="52" />
  </g>

  <!-- Haupt-Icon mit Sketch-Filter -->
  <g filter="url(#sketch)">
    
    <g stroke="#1a1a1a" stroke-width="3.5" stroke-linejoin="round" stroke-linecap="round">
      <!-- Druckstutzen oben mit Schlauch -->
      <rect x="150" y="54" width="20" height="18" fill="#1a1a1a" />
      <path d="M 160 52 Q 194 40 220 60" fill="none" stroke-width="5" stroke="#2e8bff" />
      <path d="M 160 52 Q 194 40 220 60" fill="none" stroke-width="5" />
      <!-- Griffring -->
      <circle cx="160" cy="72" r="10" fill="none" stroke-width="3" />
      <!-- Pumpengehäuse -->
      <rect x="124" y="78" width="72" height="66" rx="8" fill="#2e8bff" />
      <!-- Kabelanschluss -->
      <path d="M 130 78 Q 110 80 100 100" fill="none" stroke-width="3" />
      <!-- Saugfuß (unten mit Schlitzen) -->
      <path d="M 116 144 L 204 144 L 194 164 L 126 164 Z" fill="#1a1a1a" />
      <line x1="140" y1="150" x2="140" y2="160" stroke="#f7f1e1" stroke-width="2" />
      <line x1="152" y1="150" x2="152" y2="160" stroke="#f7f1e1" stroke-width="2" />
      <line x1="164" y1="150" x2="164" y2="160" stroke="#f7f1e1" stroke-width="2" />
      <line x1="176" y1="150" x2="176" y2="160" stroke="#f7f1e1" stroke-width="2" />
    </g>
  
  </g>
</svg>
