<?xml version="1.0" encoding="UTF-8"?>
<svg xmlns="http://www.w3.org/2000/svg" viewBox="0 0 320 220" role="img" aria-label="die Wärmebildkamera">
  <defs>
    <radialGradient id="paper" cx="50%" cy="50%" r="70%">
      <stop offset="0%" stop-color="#f7f1e1" />
      <stop offset="100%" stop-color="#e8dfc3" />
    </radialGradient>
    <filter id="sketch" x="-5%" y="-5%" width="110%" height="110%">
      <feTurbulence type="fractalNoise" baseFrequency="0.02" numOctaves="2" seed="969" />
      <feDisplacementMap in="SourceGraphic" scale="1.8" />
    </filter>
    <filter id="sketchLight" x="-5%" y="-5%" width="110%" height="110%">
      <feTurbulence type="fractalNoise" baseFrequency="0.04" numOctaves="1" seed="972" />
      <feDisplacementMap in="SourceGraphic" scale="1.1" />
    </filter>
  </defs>

  <!-- Papier-Hintergrund -->
  <rect width="320" height="220" fill="url(#paper)" />

  <!-- Doppel-Rahmen, leicht verzittert -->
  <g fill="none" stroke="#1a1a1a" stroke-linecap="round" stroke-linejoin="round" filter="url(#sketchLight)">
    <rect x="10" y="10" width="300" height="200" stroke-width="2.4" rx="4" />
    <rect x="15" y="15" width="290" height="190" stroke-width="1.2" rx="3" />
  </g>

  <!-- Pencil-Shading neben der Haupt-Silhouette -->
  <g stroke="#1a1a1a" stroke-width="1" opacity="0.18" filter="url(#sketchLight)">
    <line x1="38" y1="180" x2="78" y2="180" />
    <line x1="38" y1="186" x2="88" y2="186" />
    <line x1="38" y1="192" x2="70" y2="192" />
    <line x1="244" y1="46" x2="282" y2="46" />
    <line x1="244" y1="52" x2="276" y2="52" />
  </g>

  <!-- Haupt-Icon mit Sketch-Filter -->
  <g filter="url(#sketch)">
    
    <g stroke="#1a1a1a" stroke-width="3.5" stroke-linejoin="round" stroke-linecap="round">
      <!-- Kamerakörper -->
      <rect x="90" y="70" width="120" height="70" rx="10" fill="#9a5bd0" />
      <!-- Objektiv -->
      <circle cx="124" cy="104" r="26" fill="#2a2a2a" />
      <circle cx="124" cy="104" r="16" fill="#1a1a1a" />
      <circle cx="124" cy="104" r="6" fill="#ffffff" />
      <!-- Display rechts -->
      <rect x="160" y="80" width="48" height="36" fill="#2a2a2a" />
      <!-- Thermo-Farbverlauf angedeutet (drei Farbblöcke) -->
      <rect x="162" y="82" width="10" height="32" fill="#d83a2a" />
      <rect x="172" y="82" width="10" height="32" fill="#f5c330" />
      <rect x="182" y="82" width="10" height="32" fill="#2e8bff" />
      <rect x="192" y="82" width="14" height="32" fill="#1a1a1a" />
      <!-- Griff unten -->
      <path d="M 138 140 L 146 168 L 182 168 L 190 140 Z" fill="#9a5bd0" />
      <!-- Trigger -->
      <rect x="156" y="142" width="12" height="14" rx="2" fill="#1a1a1a" />
      <!-- Trageschlaufe -->
      <path d="M 210 90 Q 236 84 234 120" fill="none" stroke-width="3" />
    </g>
  
  </g>
</svg>
